<svg xmlns="http://www.w3.org/2000/svg" viewBox="0 0 64 64" role="img" aria-label="DanceCoach AI">
  <defs>
    <linearGradient id="bg" x1="0%" y1="0%" x2="100%" y2="100%">
      <stop offset="0%" stop-color="#38bdf8" />
      <stop offset="100%" stop-color="#a855f7" />
    </linearGradient>
  </defs>
  <rect x="2" y="2" width="60" height="60" rx="14" fill="url(#bg)" />
  <path d="M34 15c2.8 0 5 2.2 5 5s-2.2 5-5 5-5-2.2-5-5 2.2-5 5-5zm-8.5 16.5c1.2-2.9 4-4.8 7.1-4.8h3.4c1 0 1.9.6 2.3 1.5l2.1 4.9c.7 1.7 0 3.7-1.7 4.4-1.7.7-3.7 0-4.4-1.7l-.8-1.9-2.4 4.3 4.8 7c1 1.4.6 3.4-.8 4.4s-3.4.6-4.4-.8l-5.5-8c-.7-1-.8-2.3-.2-3.4l2.8-5.1-2.8 1.9c-1.4 1-3.4.6-4.4-.8-1-1.4-.6-3.4.8-4.4l4.1-2.8z" fill="#fff"/>
</svg>
